<?xml version="1.0" encoding="UTF-8"?>
<svg id="Ebene_1" data-name="Ebene 1" xmlns="http://www.w3.org/2000/svg" viewBox="0 0 1972.73 255.12">
  <defs>
    <style>
      .cls-1 {
        fill: #fff;
      }
    </style>
  </defs>
  <path class="cls-1" d="M255.12,113.39h-113.39v28.33h40.82c-8.41,33.6-46.86,54.99-85.05,34.69-7.93-4.22-14.47-10.73-18.71-18.65-23.15-43.23,7.8-86.89,48.76-86.89,20.74,0,38.91,11.21,48.79,27.88h31.23c-11.81-32.78-43.17-56.22-80.02-56.22-42.13,0-77.09,30.65-83.84,70.87h-14.35c6.9-48.02,48.3-85.04,98.2-85.04,44.71,0,82.6,29.73,94.96,70.45h29.35C238.82,42.2,188.12,0,127.56,0,57.11,0,0,57.11,0,127.56c0,4.79.27,9.52.79,14.17h42.93c6.75,40.22,41.71,70.87,83.84,70.87s77.34-30.46,83.92-70.89h14.34c-6.72,48.22-48.22,85.06-98.25,85.06-44.86,0-82.85-29.93-95.08-70.87H3.17c12.89,56.81,63.69,99.21,124.39,99.21,70.45,0,127.56-56.05,127.56-127.56,0-4.93,0-14.17,0-14.17Z"/>
  <g>
    <path class="cls-1" d="M342.44,161.29c11.97,12.48,30.55,22.91,53.98,22.91,19.86,0,29.53-9.42,29.53-19.1,0-12.73-14.77-17.06-34.37-21.64-27.75-6.37-63.4-14-63.4-51.94,0-28.26,24.44-51.18,64.42-51.18,26.99,0,49.39,8.15,66.2,23.68l-20.11,26.48c-13.75-12.73-32.08-18.59-48.63-18.59s-24.95,7.13-24.95,17.31c0,11.46,14.26,15.02,33.86,19.61,28.01,6.36,63.65,14.77,63.65,52.45,0,31.06-22.15,54.49-67.98,54.49-32.59,0-56.01-10.95-72.06-26.99l19.86-27.5Z"/>
    <path class="cls-1" d="M474.33,212.72V42.89h36.15v169.83h-36.15Z"/>
    <path class="cls-1" d="M679.04,212.72v-122.21l-47.87,122.21h-15.79l-47.87-122.21v122.21h-36.15V42.89h50.67l41.25,105.92,41.25-105.92h50.92v169.83h-36.41Z"/>
    <path class="cls-1" d="M816.78,40.09c51.43,0,88.86,36.66,88.86,87.84s-37.43,87.84-88.86,87.84-88.6-36.66-88.6-87.84,37.43-87.84,88.6-87.84ZM816.78,72.17c-31.32,0-51.43,23.93-51.43,55.76s20.11,55.76,51.43,55.76,51.69-24.19,51.69-55.76-20.37-55.76-51.69-55.76Z"/>
    <path class="cls-1" d="M1035.5,212.72l-80.97-114.07v114.07h-36.15V42.89h37.17l78.68,109.99V42.89h36.15v169.83h-34.88Z"/>
    <path class="cls-1" d="M1225.95,40.09c35.14,0,57.29,17.06,70.27,37.17l-30.04,16.3c-7.89-11.97-22.41-21.39-40.23-21.39-30.81,0-53.21,23.68-53.21,55.76s22.41,55.76,53.21,55.76c15.53,0,29.28-6.37,36.66-12.98v-20.62h-45.32v-31.06h80.97v64.93c-17.31,19.35-41.5,32.08-72.31,32.08-49.65,0-90.39-34.63-90.39-88.1s40.74-87.84,90.39-87.84Z"/>
    <path class="cls-1" d="M1410.29,212.72l-33.35-60.85h-26.48v60.85h-36.15V42.89h79.44c35.39,0,57.03,23.17,57.03,54.74s-18.84,46.08-37.17,50.41l38.19,64.67h-41.5ZM1388.39,73.96h-37.94v46.85h37.94c14.51,0,25.46-9.17,25.46-23.42s-10.95-23.42-25.46-23.42Z"/>
    <path class="cls-1" d="M1545.74,40.09c51.43,0,88.86,36.66,88.86,87.84s-37.43,87.84-88.86,87.84-88.6-36.66-88.6-87.84,37.43-87.84,88.6-87.84ZM1545.74,72.17c-31.32,0-51.43,23.93-51.43,55.76s20.11,55.76,51.43,55.76,51.69-24.19,51.69-55.76-20.37-55.76-51.69-55.76Z"/>
    <path class="cls-1" d="M1647.34,212.72V42.89h36.15v169.83h-36.15Z"/>
    <path class="cls-1" d="M1712.51,161.29c11.97,12.48,30.55,22.91,53.98,22.91,19.86,0,29.53-9.42,29.53-19.1,0-12.73-14.77-17.06-34.37-21.64-27.75-6.37-63.4-14-63.4-51.94,0-28.26,24.44-51.18,64.42-51.18,26.99,0,49.39,8.15,66.2,23.68l-20.11,26.48c-13.75-12.73-32.08-18.59-48.63-18.59s-24.95,7.13-24.95,17.31c0,11.46,14.26,15.02,33.86,19.61,28.01,6.36,63.65,14.77,63.65,52.45,0,31.06-22.15,54.49-67.98,54.49-32.59,0-56.02-10.95-72.06-26.99l19.86-27.5Z"/>
    <path class="cls-1" d="M1852.55,161.29c11.97,12.48,30.55,22.91,53.98,22.91,19.86,0,29.53-9.42,29.53-19.1,0-12.73-14.77-17.06-34.37-21.64-27.75-6.37-63.4-14-63.4-51.94,0-28.26,24.44-51.18,64.42-51.18,26.99,0,49.39,8.15,66.2,23.68l-20.11,26.48c-13.75-12.73-32.08-18.59-48.63-18.59s-24.95,7.13-24.95,17.31c0,11.46,14.26,15.02,33.86,19.61,28.01,6.36,63.65,14.77,63.65,52.45,0,31.06-22.15,54.49-67.98,54.49-32.59,0-56.02-10.95-72.06-26.99l19.86-27.5Z"/>
  </g>
</svg>