<?xml version="1.0" encoding="UTF-8"?>
<svg id="Ebene_1" data-name="Ebene 1" xmlns="http://www.w3.org/2000/svg" viewBox="0 0 1297.38 255.12">
  <defs>
    <style>
      .cls-1 {
        fill: #fff;
      }
    </style>
  </defs>
  <path class="cls-1" d="M253.67,113.39h-110.54c-.78,0-1.4.63-1.4,1.4v25.52c0,.77.63,1.4,1.4,1.4h39.42c-8.09,32.32-43.98,53.35-80.69,36.83-11.22-5.05-20.15-13.94-25.22-25.15-18.9-41.75,11.33-82.53,50.92-82.53,20.46,0,38.41,10.9,48.38,27.19.26.43.72.69,1.22.69h28.38c.99,0,1.69-.99,1.33-1.91-12.32-31.78-43.18-54.31-79.31-54.31-42.13,0-77.09,30.65-83.84,70.87h-14.35c6.9-48.02,48.3-85.04,98.2-85.04,44.34,0,81.97,29.24,94.65,69.45.19.59.73,1,1.36,1h26.51c.91,0,1.59-.86,1.38-1.74C237.77,41.34,187.49,0,127.56,0,57.11,0,0,57.11,0,127.56c0,4.79.27,9.52.79,14.17h42.93c6.75,40.22,41.71,70.87,83.84,70.87s77.34-30.46,83.92-70.89h14.34c-6.72,48.22-48.22,85.06-98.25,85.06-44.51,0-82.26-29.46-94.79-69.91-.18-.57-.7-.96-1.29-.96H4.96c-.91,0-1.6.86-1.38,1.74,13.53,55.93,63.9,97.47,123.98,97.47,70.45,0,127.56-56.05,127.56-127.56,0-3.74,0-9.94,0-12.73,0-.8-.65-1.44-1.44-1.44Z"/>
  <g>
    <path class="cls-1" d="M316.48,209.14c-5.63-2.31-10.13-5.72-13.5-10.25-3.37-4.52-5.15-9.97-5.33-16.35h25.21c.37,3.6,1.61,6.35,3.74,8.24,2.12,1.89,4.89,2.84,8.31,2.84s6.28-.81,8.31-2.42c2.03-1.61,3.05-3.86,3.05-6.72,0-2.4-.81-4.38-2.43-5.96-1.62-1.57-3.6-2.86-5.96-3.88-2.35-1.01-5.7-2.17-10.04-3.46-6.28-1.94-11.41-3.88-15.37-5.82-3.97-1.94-7.39-4.8-10.25-8.59-2.86-3.79-4.29-8.73-4.29-14.82,0-9.05,3.28-16.14,9.84-21.26,6.55-5.13,15.1-7.69,25.62-7.69s19.34,2.56,25.9,7.69c6.56,5.12,10.06,12.26,10.53,21.4h-25.62c-.18-3.14-1.34-5.61-3.46-7.41-2.12-1.8-4.85-2.7-8.17-2.7-2.86,0-5.17.76-6.93,2.28-1.76,1.52-2.63,3.72-2.63,6.58,0,3.14,1.48,5.59,4.43,7.34,2.95,1.76,7.57,3.65,13.85,5.68,6.28,2.13,11.38,4.16,15.31,6.1,3.92,1.94,7.32,4.76,10.18,8.45,2.86,3.69,4.29,8.45,4.29,14.27s-1.41,10.57-4.22,15.1c-2.82,4.53-6.9,8.13-12.26,10.8-5.35,2.68-11.68,4.02-18.97,4.02s-13.48-1.15-19.11-3.46Z"/>
    <path class="cls-1" d="M409.27,114.4v97.23h-23.68v-97.23h23.68Z"/>
    <path class="cls-1" d="M536.56,114.4v97.23h-23.69v-58.31l-21.75,58.31h-19.11l-21.88-58.45v58.45h-23.68v-97.23h27.98l27.29,67.31,27.01-67.31h27.84Z"/>
    <path class="cls-1" d="M574.45,206.23c-7.62-4.25-13.67-10.18-18.14-17.8-4.48-7.62-6.72-16.18-6.72-25.69s2.24-18.05,6.72-25.62c4.48-7.57,10.53-13.48,18.14-17.73,7.62-4.25,16-6.37,25.14-6.37s17.52,2.12,25.14,6.37c7.62,4.25,13.62,10.16,18.01,17.73,4.38,7.57,6.58,16.11,6.58,25.62s-2.22,18.08-6.65,25.69c-4.43,7.62-10.44,13.55-18.01,17.8-7.57,4.25-15.93,6.37-25.07,6.37s-17.52-2.12-25.14-6.37ZM618.21,183.23c4.66-5.17,6.99-12,6.99-20.5s-2.33-15.44-6.99-20.57c-4.67-5.13-10.87-7.69-18.63-7.69s-14.11,2.54-18.77,7.62c-4.66,5.08-6.99,11.96-6.99,20.64s2.33,15.44,6.99,20.57c4.66,5.12,10.92,7.69,18.77,7.69s13.96-2.58,18.63-7.76Z"/>
    <path class="cls-1" d="M749.45,211.63h-23.68l-39.61-59.97v59.97h-23.68v-97.23h23.68l39.61,60.25v-60.25h23.68v97.23Z"/>
    <path class="cls-1" d="M860.53,145.15c-1.76-3.23-4.27-5.7-7.55-7.41-3.28-1.71-7.13-2.56-11.57-2.56-7.67,0-13.81,2.52-18.42,7.55-4.62,5.03-6.93,11.75-6.93,20.15,0,8.96,2.42,15.95,7.27,20.98,4.85,5.03,11.52,7.55,20.01,7.55,5.82,0,10.73-1.48,14.75-4.43,4.02-2.95,6.95-7.2,8.8-12.74h-30.06v-17.45h51.53v22.02c-1.76,5.91-4.73,11.41-8.93,16.48-4.2,5.08-9.54,9.19-16,12.33-6.47,3.14-13.76,4.71-21.88,4.71-9.6,0-18.17-2.1-25.69-6.3-7.53-4.2-13.39-10.04-17.59-17.52-4.2-7.48-6.3-16.02-6.3-25.62s2.1-18.17,6.3-25.69c4.2-7.52,10.04-13.39,17.52-17.59,7.48-4.2,16.02-6.3,25.62-6.3,11.64,0,21.44,2.82,29.43,8.45,7.99,5.63,13.27,13.44,15.86,23.41h-26.18Z"/>
    <path class="cls-1" d="M951.12,211.63l-20.22-36.71h-5.68v36.71h-23.68v-97.23h39.75c7.66,0,14.2,1.34,19.6,4.02,5.4,2.68,9.44,6.35,12.12,11.01,2.68,4.66,4.02,9.86,4.02,15.58,0,6.46-1.82,12.24-5.47,17.31-3.65,5.08-9.03,8.68-16.14,10.8l22.44,38.5h-26.73ZM925.21,158.16h14.68c4.34,0,7.59-1.06,9.76-3.19,2.17-2.12,3.25-5.12,3.25-9s-1.09-6.6-3.25-8.73c-2.17-2.12-5.43-3.19-9.76-3.19h-14.68v24.1Z"/>
    <path class="cls-1" d="M1012.68,206.23c-7.62-4.25-13.67-10.18-18.14-17.8-4.48-7.62-6.72-16.18-6.72-25.69s2.24-18.05,6.72-25.62c4.48-7.57,10.53-13.48,18.14-17.73,7.62-4.25,16-6.37,25.14-6.37s17.52,2.12,25.14,6.37c7.62,4.25,13.62,10.16,18.01,17.73,4.38,7.57,6.58,16.11,6.58,25.62s-2.22,18.08-6.65,25.69c-4.43,7.62-10.44,13.55-18.01,17.8-7.57,4.25-15.93,6.37-25.07,6.37s-17.52-2.12-25.14-6.37ZM1056.45,183.23c4.66-5.17,6.99-12,6.99-20.5s-2.33-15.44-6.99-20.57c-4.67-5.13-10.87-7.69-18.63-7.69s-14.11,2.54-18.77,7.62c-4.66,5.08-6.99,11.96-6.99,20.64s2.33,15.44,6.99,20.57c4.66,5.12,10.92,7.69,18.77,7.69s13.96-2.58,18.63-7.76Z"/>
    <path class="cls-1" d="M1124.39,114.4v97.23h-23.68v-97.23h23.68Z"/>
    <path class="cls-1" d="M1157.63,209.14c-5.63-2.31-10.13-5.72-13.5-10.25-3.37-4.52-5.15-9.97-5.33-16.35h25.21c.37,3.6,1.61,6.35,3.74,8.24,2.12,1.89,4.89,2.84,8.31,2.84s6.28-.81,8.31-2.42c2.03-1.61,3.05-3.86,3.05-6.72,0-2.4-.81-4.38-2.43-5.96-1.62-1.57-3.6-2.86-5.96-3.88-2.35-1.01-5.7-2.17-10.04-3.46-6.28-1.94-11.41-3.88-15.37-5.82-3.97-1.94-7.39-4.8-10.25-8.59-2.86-3.79-4.29-8.73-4.29-14.82,0-9.05,3.28-16.14,9.84-21.26,6.55-5.13,15.1-7.69,25.62-7.69s19.34,2.56,25.9,7.69c6.56,5.12,10.06,12.26,10.53,21.4h-25.62c-.18-3.14-1.34-5.61-3.46-7.41-2.12-1.8-4.85-2.7-8.17-2.7-2.86,0-5.17.76-6.93,2.28-1.76,1.52-2.63,3.72-2.63,6.58,0,3.14,1.48,5.59,4.43,7.34,2.95,1.76,7.57,3.65,13.85,5.68,6.28,2.13,11.38,4.16,15.31,6.1,3.92,1.94,7.32,4.76,10.18,8.45,2.86,3.69,4.29,8.45,4.29,14.27s-1.41,10.57-4.22,15.1c-2.82,4.53-6.9,8.13-12.26,10.8-5.35,2.68-11.68,4.02-18.97,4.02s-13.48-1.15-19.11-3.46Z"/>
    <path class="cls-1" d="M1242.81,209.14c-5.63-2.31-10.13-5.72-13.5-10.25-3.37-4.52-5.15-9.97-5.33-16.35h25.21c.37,3.6,1.61,6.35,3.74,8.24,2.12,1.89,4.89,2.84,8.31,2.84s6.28-.81,8.31-2.42c2.03-1.61,3.05-3.86,3.05-6.72,0-2.4-.81-4.38-2.43-5.96-1.62-1.57-3.6-2.86-5.96-3.88-2.35-1.01-5.7-2.17-10.04-3.46-6.28-1.94-11.41-3.88-15.37-5.82-3.97-1.94-7.39-4.8-10.25-8.59-2.86-3.79-4.29-8.73-4.29-14.82,0-9.05,3.28-16.14,9.84-21.26,6.55-5.13,15.1-7.69,25.62-7.69s19.34,2.56,25.9,7.69c6.56,5.12,10.06,12.26,10.53,21.4h-25.62c-.18-3.14-1.34-5.61-3.46-7.41-2.12-1.8-4.85-2.7-8.17-2.7-2.86,0-5.17.76-6.93,2.28-1.76,1.52-2.63,3.72-2.63,6.58,0,3.14,1.48,5.59,4.43,7.34,2.95,1.76,7.57,3.65,13.85,5.68,6.28,2.13,11.38,4.16,15.31,6.1,3.92,1.94,7.32,4.76,10.18,8.45,2.86,3.69,4.29,8.45,4.29,14.27s-1.41,10.57-4.22,15.1c-2.82,4.53-6.9,8.13-12.26,10.8-5.35,2.68-11.68,4.02-18.97,4.02s-13.48-1.15-19.11-3.46Z"/>
  </g>
</svg>