<?xml version="1.0" encoding="UTF-8"?>
<svg id="Ebene_1" data-name="Ebene 1" xmlns="http://www.w3.org/2000/svg" viewBox="0 0 325.24 54.23">
  <defs>
    <style>
      .cls-1 {
        fill: #fff;
      }
    </style>
  </defs>
  <path class="cls-1" d="M51.38,27.85s0,.01,0,.02h-4.64s0-.01,0-.02h-2.83s0,.01,0,.02h-12.51v2.82h12.09c-1.75,7.43-8.43,12.97-16.38,12.97-9.28,0-16.83-7.55-16.83-16.83s7.55-16.83,16.83-16.83c6.8,0,12.67,4.06,15.32,9.88h3.06c-2.81-7.42-9.98-12.71-18.39-12.71-10.86,0-19.66,8.8-19.66,19.66,0,.35,0,.69.03,1.04H2.84c0-.25-.01-.5-.01-.75C2.82,13.72,13.72,2.82,27.11,2.82c10.87,0,20.1,7.18,23.19,17.06h2.95C50.08,8.42,39.58,0,27.11,0,12.14,0,0,12.14,0,27.11c0,.8.04,1.59.11,2.37v1.21h7.73c1.79,9.01,9.74,15.8,19.28,15.8s17.48-6.79,19.28-15.8h4.73c-1.74,11.7-11.83,20.71-24.01,20.71-10.97,0-20.25-7.31-23.26-17.3H.91c3.08,11.59,13.64,20.13,26.2,20.13,14.73,0,26.71-11.74,27.1-26.38h-2.83Z"/>
  <g>
    <path class="cls-1" d="M84.5,17.61c-.99-.51-2.1-.76-3.32-.76-.84,0-1.6.11-2.29.34-.69.23-1.27.55-1.75.95-.48.41-.86.88-1.13,1.41s-.4,1.13-.4,1.79c0,.76.17,1.41.5,1.93.33.52.78.99,1.35,1.41.57.42,1.24.8,2,1.14.76.34,1.56.71,2.4,1.09,1.02.43,1.99.88,2.92,1.34.93.46,1.75.99,2.46,1.58.71.6,1.28,1.3,1.7,2.12.42.81.63,1.81.63,2.98,0,.97-.19,1.88-.57,2.75-.38.87-.94,1.62-1.68,2.27-.74.65-1.64,1.16-2.71,1.55-1.07.38-2.29.57-3.66.57-.97,0-1.9-.11-2.79-.32-.89-.22-1.7-.54-2.44-.97-.74-.43-1.41-.95-2-1.54s-1.1-1.25-1.51-1.96l2.21-1.49c.66,1.25,1.56,2.19,2.71,2.84,1.14.65,2.44.97,3.89.97.89,0,1.69-.12,2.4-.36.71-.24,1.33-.57,1.85-.97.52-.41.92-.88,1.2-1.43.28-.55.42-1.14.42-1.77,0-.84-.17-1.56-.52-2.16s-.81-1.11-1.39-1.55c-.59-.43-1.27-.83-2.06-1.18-.79-.36-1.63-.71-2.52-1.07-.92-.41-1.82-.81-2.71-1.22-.89-.41-1.69-.9-2.38-1.47-.7-.57-1.27-1.26-1.72-2.06-.45-.8-.67-1.77-.67-2.92,0-.97.2-1.88.61-2.73.41-.85.97-1.6,1.7-2.23.73-.64,1.6-1.14,2.61-1.53,1.02-.38,2.14-.57,3.36-.57.79,0,1.56.08,2.31.25.75.17,1.47.42,2.16.76.69.34,1.33.78,1.93,1.32.6.53,1.09,1.18,1.47,1.95l-2.02,1.41c-.71-1.12-1.56-1.93-2.56-2.44Z"/>
    <path class="cls-1" d="M93.85,14.83h2.63v26.82h-2.63V14.83Z"/>
    <path class="cls-1" d="M115.45,40.32l-8.74-19.31.27-.04-3.78,20.68h-2.67l4.96-27.13h.84l9.73,21.67h-.38l9.73-21.67h.88l4.92,27.13h-2.67l-3.74-20.68.27.04-8.78,19.31h-.84Z"/>
    <path class="cls-1" d="M152.29,15.44c1.67.71,3.12,1.69,4.35,2.92,1.23,1.23,2.21,2.7,2.92,4.39.71,1.69,1.07,3.53,1.07,5.51s-.36,3.78-1.07,5.48c-.71,1.69-1.69,3.16-2.92,4.39-1.23,1.23-2.68,2.21-4.35,2.92-1.67.71-3.47,1.07-5.4,1.07s-3.7-.36-5.38-1.07c-1.68-.71-3.14-1.69-4.37-2.92-1.23-1.23-2.21-2.7-2.92-4.39-.71-1.69-1.07-3.52-1.07-5.48s.36-3.82,1.07-5.51c.71-1.69,1.68-3.15,2.92-4.39s2.69-2.21,4.37-2.92c1.68-.71,3.47-1.07,5.38-1.07s3.73.36,5.4,1.07ZM142.6,17.82c-1.34.57-2.51,1.37-3.51,2.39s-1.79,2.21-2.37,3.59c-.57,1.37-.86,2.86-.86,4.46s.29,3.09.86,4.46c.57,1.37,1.36,2.56,2.37,3.57,1,1.01,2.18,1.79,3.51,2.37s2.77.86,4.29.86,2.96-.29,4.29-.86,2.51-1.36,3.51-2.37c1-1,1.79-2.19,2.37-3.57.57-1.37.86-2.86.86-4.46s-.29-3.09-.86-4.46c-.57-1.37-1.36-2.57-2.37-3.59s-2.17-1.81-3.51-2.39c-1.34-.57-2.77-.86-4.29-.86s-2.96.29-4.29.86Z"/>
    <path class="cls-1" d="M164.9,14.52h.88l17.9,21.79-.3.11V14.83h2.63v27.17h-.88l-17.86-21.79.27-.11v21.56h-2.63V14.52Z"/>
    <path class="cls-1" d="M207.69,17.82c-1.33.57-2.51,1.37-3.51,2.39-1.01,1.02-1.79,2.21-2.37,3.59-.57,1.37-.86,2.86-.86,4.46s.29,3.09.86,4.46c.57,1.37,1.36,2.56,2.37,3.57,1,1.01,2.17,1.79,3.51,2.37,1.34.57,2.77.86,4.29.86s2.81-.24,4.08-.71c1.27-.47,2.38-1.14,3.32-2.02s1.68-1.95,2.21-3.21.79-2.66.76-4.22l.46.5h-10.61v-2.33h12.74c.03.28.05.55.08.8.03.25.04.52.04.8,0,1.86-.33,3.57-.99,5.15-.66,1.58-1.58,2.94-2.75,4.1-1.17,1.16-2.56,2.07-4.16,2.73s-3.33.99-5.19.99-3.7-.36-5.38-1.07-3.14-1.69-4.37-2.92c-1.23-1.23-2.21-2.7-2.92-4.39-.71-1.69-1.07-3.52-1.07-5.48s.36-3.82,1.07-5.51c.71-1.69,1.68-3.15,2.92-4.39s2.69-2.21,4.37-2.92c1.68-.71,3.47-1.07,5.38-1.07,2.34,0,4.45.46,6.32,1.39,1.87.93,3.43,2.19,4.67,3.8l-2.02,1.76c-1.02-1.37-2.26-2.44-3.72-3.21-1.46-.76-3.21-1.15-5.25-1.15-1.53,0-2.96.29-4.29.86Z"/>
    <path class="cls-1" d="M229,41.65V14.83h10.19c1.14,0,2.21.18,3.21.55.99.37,1.86.9,2.61,1.58.75.69,1.33,1.52,1.75,2.5.42.98.63,2.04.63,3.19,0,1.02-.15,1.94-.46,2.77-.31.83-.73,1.56-1.26,2.19-.53.64-1.16,1.17-1.87,1.6-.71.43-1.49.76-2.33.99l5.84,11.45h-2.98l-5.61-11.18-7.67.04v-2.25h7.78c.81,0,1.58-.13,2.29-.38.71-.25,1.33-.63,1.85-1.13.52-.5.93-1.08,1.24-1.76.3-.67.46-1.43.46-2.27s-.15-1.63-.46-2.31c-.31-.67-.73-1.25-1.26-1.72s-1.16-.83-1.87-1.09c-.71-.25-1.48-.38-2.29-.38h-7.63l.46-.46v24.88h-2.63Z"/>
    <path class="cls-1" d="M269.13,15.44c1.67.71,3.12,1.69,4.35,2.92s2.21,2.7,2.92,4.39c.71,1.69,1.07,3.53,1.07,5.51s-.36,3.78-1.07,5.48c-.71,1.69-1.69,3.16-2.92,4.39-1.23,1.23-2.68,2.21-4.35,2.92s-3.47,1.07-5.4,1.07-3.7-.36-5.38-1.07-3.14-1.69-4.37-2.92c-1.23-1.23-2.21-2.7-2.92-4.39-.71-1.69-1.07-3.52-1.07-5.48s.36-3.82,1.07-5.51c.71-1.69,1.68-3.15,2.92-4.39s2.69-2.21,4.37-2.92c1.68-.71,3.47-1.07,5.38-1.07s3.73.36,5.4,1.07ZM259.43,17.82c-1.33.57-2.51,1.37-3.51,2.39-1.01,1.02-1.79,2.21-2.37,3.59-.57,1.37-.86,2.86-.86,4.46s.29,3.09.86,4.46c.57,1.37,1.36,2.56,2.37,3.57,1,1.01,2.17,1.79,3.51,2.37,1.34.57,2.77.86,4.29.86s2.96-.29,4.29-.86,2.5-1.36,3.51-2.37c1-1,1.79-2.19,2.37-3.57.57-1.37.86-2.86.86-4.46s-.29-3.09-.86-4.46c-.57-1.37-1.36-2.57-2.37-3.59-1.01-1.02-2.17-1.81-3.51-2.39-1.34-.57-2.77-.86-4.29-.86s-2.96.29-4.29.86Z"/>
    <path class="cls-1" d="M281.74,14.83h2.63v26.82h-2.63V14.83Z"/>
    <path class="cls-1" d="M300.66,17.61c-.99-.51-2.1-.76-3.32-.76-.84,0-1.6.11-2.29.34s-1.27.55-1.75.95c-.48.41-.86.88-1.13,1.41-.27.53-.4,1.13-.4,1.79,0,.76.17,1.41.5,1.93.33.52.78.99,1.35,1.41.57.42,1.24.8,2,1.14.76.34,1.56.71,2.4,1.09,1.02.43,1.99.88,2.92,1.34.93.46,1.75.99,2.46,1.58s1.28,1.3,1.7,2.12c.42.81.63,1.81.63,2.98,0,.97-.19,1.88-.57,2.75-.38.87-.94,1.62-1.68,2.27-.74.65-1.64,1.16-2.71,1.55-1.07.38-2.29.57-3.66.57-.97,0-1.9-.11-2.79-.32-.89-.22-1.71-.54-2.44-.97-.74-.43-1.41-.95-2-1.54-.6-.6-1.1-1.25-1.51-1.96l2.21-1.49c.66,1.25,1.56,2.19,2.71,2.84,1.14.65,2.44.97,3.89.97.89,0,1.69-.12,2.4-.36.71-.24,1.33-.57,1.85-.97.52-.41.92-.88,1.2-1.43.28-.55.42-1.14.42-1.77,0-.84-.17-1.56-.52-2.16s-.81-1.11-1.39-1.55c-.59-.43-1.27-.83-2.06-1.18-.79-.36-1.63-.71-2.52-1.07-.92-.41-1.82-.81-2.71-1.22-.89-.41-1.69-.9-2.38-1.47-.7-.57-1.27-1.26-1.72-2.06-.45-.8-.67-1.77-.67-2.92,0-.97.2-1.88.61-2.73.41-.85.97-1.6,1.7-2.23.72-.64,1.6-1.14,2.61-1.53,1.02-.38,2.14-.57,3.36-.57.79,0,1.56.08,2.31.25.75.17,1.47.42,2.16.76.69.34,1.33.78,1.93,1.32s1.09,1.18,1.47,1.95l-2.02,1.41c-.71-1.12-1.56-1.93-2.56-2.44Z"/>
    <path class="cls-1" d="M320.16,17.61c-.99-.51-2.1-.76-3.32-.76-.84,0-1.6.11-2.29.34s-1.27.55-1.75.95c-.48.41-.86.88-1.13,1.41-.27.53-.4,1.13-.4,1.79,0,.76.17,1.41.5,1.93.33.52.78.99,1.35,1.41.57.42,1.24.8,2,1.14.76.34,1.56.71,2.4,1.09,1.02.43,1.99.88,2.92,1.34.93.46,1.75.99,2.46,1.58s1.28,1.3,1.7,2.12c.42.81.63,1.81.63,2.98,0,.97-.19,1.88-.57,2.75-.38.87-.94,1.62-1.68,2.27-.74.65-1.64,1.16-2.71,1.55-1.07.38-2.29.57-3.66.57-.97,0-1.9-.11-2.79-.32-.89-.22-1.71-.54-2.44-.97-.74-.43-1.41-.95-2-1.54-.6-.6-1.1-1.25-1.51-1.96l2.21-1.49c.66,1.25,1.56,2.19,2.71,2.84,1.14.65,2.44.97,3.89.97.89,0,1.69-.12,2.4-.36.71-.24,1.33-.57,1.85-.97.52-.41.92-.88,1.2-1.43.28-.55.42-1.14.42-1.77,0-.84-.17-1.56-.52-2.16s-.81-1.11-1.39-1.55c-.59-.43-1.27-.83-2.06-1.18-.79-.36-1.63-.71-2.52-1.07-.92-.41-1.82-.81-2.71-1.22-.89-.41-1.69-.9-2.38-1.47-.7-.57-1.27-1.26-1.72-2.06-.45-.8-.67-1.77-.67-2.92,0-.97.2-1.88.61-2.73.41-.85.97-1.6,1.7-2.23.72-.64,1.6-1.14,2.61-1.53,1.02-.38,2.14-.57,3.36-.57.79,0,1.56.08,2.31.25.75.17,1.47.42,2.16.76.69.34,1.33.78,1.93,1.32s1.09,1.18,1.47,1.95l-2.02,1.41c-.71-1.12-1.56-1.93-2.56-2.44Z"/>
  </g>
</svg>