<?xml version="1.0" encoding="UTF-8"?>
<svg id="Ebene_1" data-name="Ebene 1" xmlns="http://www.w3.org/2000/svg" viewBox="0 0 1345.4 255.12">
  <defs>
    <style>
      .cls-1 {
        fill: #fff;
      }
    </style>
  </defs>
  <path class="cls-1" d="M255.12,113.39h-113.39v28.33h40.82c-8.41,33.6-46.86,54.99-85.05,34.69-7.93-4.22-14.47-10.73-18.71-18.65-23.15-43.23,7.8-86.89,48.76-86.89,20.74,0,38.91,11.21,48.79,27.88h31.23c-11.81-32.78-43.17-56.22-80.02-56.22-42.13,0-77.09,30.65-83.84,70.87h-14.35c6.9-48.02,48.3-85.04,98.2-85.04,44.71,0,82.6,29.73,94.96,70.45h29.35C238.82,42.2,188.12,0,127.56,0,57.11,0,0,57.11,0,127.56c0,4.79.27,9.52.79,14.17h42.93c6.75,40.22,41.71,70.87,83.84,70.87s77.34-30.46,83.92-70.89h14.34c-6.72,48.22-48.22,85.06-98.25,85.06-44.86,0-82.85-29.93-95.08-70.87H3.17c12.89,56.81,63.69,99.21,124.39,99.21,70.45,0,127.56-56.05,127.56-127.56,0-4.93,0-14.17,0-14.17Z"/>
  <g>
    <path class="cls-1" d="M344.92,210.02c-5.75-2.35-10.34-5.84-13.77-10.45-3.44-4.61-5.25-10.17-5.44-16.67h25.71c.38,3.67,1.65,6.48,3.81,8.41,2.17,1.93,4.99,2.9,8.48,2.9s6.4-.82,8.48-2.47c2.07-1.65,3.11-3.93,3.11-6.85,0-2.45-.83-4.47-2.47-6.08-1.65-1.6-3.67-2.92-6.07-3.96-2.4-1.03-5.82-2.21-10.24-3.53-6.41-1.98-11.63-3.96-15.68-5.93-4.05-1.98-7.54-4.9-10.45-8.76-2.92-3.86-4.38-8.9-4.38-15.12,0-9.23,3.34-16.46,10.03-21.69,6.68-5.23,15.4-7.84,26.13-7.84s19.73,2.61,26.42,7.84c6.69,5.23,10.26,12.5,10.74,21.83h-26.14c-.19-3.2-1.37-5.72-3.53-7.56-2.17-1.84-4.94-2.75-8.33-2.75-2.92,0-5.28.78-7.06,2.33-1.79,1.55-2.69,3.79-2.69,6.71,0,3.2,1.51,5.7,4.52,7.49,3.01,1.79,7.72,3.72,14.13,5.79,6.4,2.17,11.61,4.24,15.61,6.22,4,1.98,7.46,4.85,10.38,8.62,2.92,3.77,4.38,8.62,4.38,14.55s-1.44,10.79-4.31,15.4c-2.87,4.62-7.04,8.29-12.5,11.02-5.46,2.73-11.91,4.1-19.35,4.1s-13.75-1.18-19.5-3.53Z"/>
    <path class="cls-1" d="M439.57,113.39v99.17h-24.16v-99.17h24.16Z"/>
    <path class="cls-1" d="M569.4,113.39v99.17h-24.16v-59.47l-22.18,59.47h-19.49l-22.32-59.62v59.62h-24.16v-99.17h28.54l27.83,68.66,27.55-68.66h28.4Z"/>
    <path class="cls-1" d="M608.04,207.06c-7.77-4.33-13.94-10.39-18.51-18.16-4.57-7.77-6.85-16.5-6.85-26.2s2.28-18.41,6.85-26.14c4.57-7.72,10.74-13.75,18.51-18.08,7.77-4.33,16.32-6.5,25.64-6.5s17.87,2.17,25.64,6.5c7.77,4.33,13.89,10.36,18.37,18.08,4.47,7.72,6.71,16.44,6.71,26.14s-2.26,18.44-6.78,26.2c-4.52,7.77-10.64,13.82-18.37,18.16-7.72,4.33-16.25,6.5-25.57,6.5s-17.87-2.17-25.64-6.5ZM652.68,183.6c4.75-5.27,7.13-12.24,7.13-20.91s-2.38-15.75-7.13-20.98c-4.76-5.23-11.09-7.84-19-7.84s-14.39,2.59-19.14,7.77c-4.76,5.18-7.13,12.2-7.13,21.05s2.38,15.75,7.13,20.98c4.75,5.23,11.14,7.84,19.14,7.84s14.24-2.64,19-7.91Z"/>
    <path class="cls-1" d="M786.53,212.56h-24.16l-40.4-61.17v61.17h-24.16v-99.17h24.16l40.4,61.45v-61.45h24.16v99.17Z"/>
    <path class="cls-1" d="M899.83,144.75c-1.79-3.3-4.36-5.81-7.7-7.56-3.35-1.74-7.28-2.61-11.8-2.61-7.82,0-14.08,2.57-18.79,7.7-4.71,5.13-7.06,11.99-7.06,20.55,0,9.14,2.47,16.27,7.42,21.4,4.95,5.13,11.75,7.7,20.41,7.7,5.93,0,10.95-1.51,15.05-4.52,4.1-3.01,7.09-7.35,8.97-13h-30.66v-17.8h52.55v22.46c-1.79,6.03-4.83,11.63-9.11,16.81-4.29,5.18-9.73,9.37-16.32,12.57-6.59,3.2-14.03,4.8-22.32,4.8-9.8,0-18.53-2.14-26.21-6.43-7.68-4.29-13.66-10.24-17.94-17.87-4.29-7.63-6.43-16.34-6.43-26.13s2.14-18.53,6.43-26.21c4.28-7.67,10.24-13.65,17.87-17.94,7.63-4.28,16.34-6.43,26.14-6.43,11.87,0,21.87,2.87,30.02,8.62,8.15,5.75,13.54,13.7,16.17,23.88h-26.7Z"/>
    <path class="cls-1" d="M992.23,212.56l-20.63-37.44h-5.79v37.44h-24.16v-99.17h40.54c7.82,0,14.48,1.37,19.99,4.1,5.51,2.73,9.63,6.48,12.36,11.23,2.73,4.76,4.1,10.06,4.1,15.89,0,6.59-1.86,12.48-5.58,17.66-3.72,5.18-9.21,8.85-16.46,11.02l22.88,39.27h-27.26ZM965.81,158.03h14.98c4.43,0,7.74-1.08,9.96-3.25,2.21-2.17,3.32-5.23,3.32-9.18s-1.11-6.73-3.32-8.9c-2.21-2.17-5.53-3.25-9.96-3.25h-14.98v24.58Z"/>
    <path class="cls-1" d="M1055.02,207.06c-7.77-4.33-13.94-10.39-18.51-18.16-4.57-7.77-6.85-16.5-6.85-26.2s2.28-18.41,6.85-26.14c4.57-7.72,10.74-13.75,18.51-18.08,7.77-4.33,16.32-6.5,25.64-6.5s17.87,2.17,25.64,6.5c7.77,4.33,13.89,10.36,18.37,18.08,4.47,7.72,6.71,16.44,6.71,26.14s-2.26,18.44-6.78,26.2c-4.52,7.77-10.64,13.82-18.37,18.16-7.72,4.33-16.25,6.5-25.57,6.5s-17.87-2.17-25.64-6.5ZM1099.66,183.6c4.75-5.27,7.13-12.24,7.13-20.91s-2.38-15.75-7.13-20.98c-4.76-5.23-11.09-7.84-19-7.84s-14.39,2.59-19.14,7.77c-4.76,5.18-7.13,12.2-7.13,21.05s2.38,15.75,7.13,20.98c4.75,5.23,11.14,7.84,19.14,7.84s14.24-2.64,19-7.91Z"/>
    <path class="cls-1" d="M1168.95,113.39v99.17h-24.16v-99.17h24.16Z"/>
    <path class="cls-1" d="M1202.86,210.02c-5.75-2.35-10.34-5.84-13.77-10.45-3.44-4.61-5.25-10.17-5.44-16.67h25.71c.38,3.67,1.65,6.48,3.81,8.41,2.17,1.93,4.99,2.9,8.48,2.9s6.4-.82,8.48-2.47c2.07-1.65,3.11-3.93,3.11-6.85,0-2.45-.83-4.47-2.47-6.08-1.65-1.6-3.67-2.92-6.07-3.96-2.4-1.03-5.82-2.21-10.24-3.53-6.41-1.98-11.63-3.96-15.68-5.93-4.05-1.98-7.54-4.9-10.45-8.76-2.92-3.86-4.38-8.9-4.38-15.12,0-9.23,3.34-16.46,10.03-21.69,6.68-5.23,15.4-7.84,26.13-7.84s19.73,2.61,26.42,7.84c6.69,5.23,10.26,12.5,10.74,21.83h-26.14c-.19-3.2-1.37-5.72-3.53-7.56-2.17-1.84-4.94-2.75-8.33-2.75-2.92,0-5.28.78-7.06,2.33-1.79,1.55-2.69,3.79-2.69,6.71,0,3.2,1.51,5.7,4.52,7.49,3.01,1.79,7.72,3.72,14.13,5.79,6.4,2.17,11.61,4.24,15.61,6.22,4,1.98,7.46,4.85,10.38,8.62,2.92,3.77,4.38,8.62,4.38,14.55s-1.44,10.79-4.31,15.4c-2.87,4.62-7.04,8.29-12.5,11.02-5.46,2.73-11.91,4.1-19.35,4.1s-13.75-1.18-19.5-3.53Z"/>
    <path class="cls-1" d="M1289.74,210.02c-5.75-2.35-10.34-5.84-13.77-10.45-3.44-4.61-5.25-10.17-5.44-16.67h25.71c.38,3.67,1.65,6.48,3.81,8.41,2.17,1.93,4.99,2.9,8.48,2.9s6.4-.82,8.48-2.47c2.07-1.65,3.11-3.93,3.11-6.85,0-2.45-.83-4.47-2.47-6.08-1.65-1.6-3.67-2.92-6.07-3.96-2.4-1.03-5.82-2.21-10.24-3.53-6.41-1.98-11.63-3.96-15.68-5.93-4.05-1.98-7.54-4.9-10.45-8.76-2.92-3.86-4.38-8.9-4.38-15.12,0-9.23,3.34-16.46,10.03-21.69,6.68-5.23,15.4-7.84,26.13-7.84s19.73,2.61,26.42,7.84c6.69,5.23,10.26,12.5,10.74,21.83h-26.14c-.19-3.2-1.37-5.72-3.53-7.56-2.17-1.84-4.94-2.75-8.33-2.75-2.92,0-5.28.78-7.06,2.33-1.79,1.55-2.69,3.79-2.69,6.71,0,3.2,1.51,5.7,4.52,7.49,3.01,1.79,7.72,3.72,14.13,5.79,6.4,2.17,11.61,4.24,15.61,6.22,4,1.98,7.46,4.85,10.38,8.62,2.92,3.77,4.38,8.62,4.38,14.55s-1.44,10.79-4.31,15.4c-2.87,4.62-7.04,8.29-12.5,11.02-5.46,2.73-11.91,4.1-19.35,4.1s-13.75-1.18-19.5-3.53Z"/>
  </g>
  <g>
    <path class="cls-1" d="M364.84,56.73l-8.39,28.3h-5.25l-5.94-21.42-6.31,21.42-5.21.04-8.02-28.34h4.93l5.86,23.05,6.35-23.05h5.21l5.9,22.92,5.9-22.92h4.97Z"/>
    <path class="cls-1" d="M374.81,60.48v8.31h9.77v3.79h-9.77v8.67h10.99v3.79h-15.63v-28.34h15.63v3.79h-10.99Z"/>
    <path class="cls-1" d="M412.02,72.9c1.06,1.33,1.59,2.84,1.59,4.52,0,1.44-.37,2.74-1.12,3.89-.75,1.15-1.83,2.06-3.24,2.73s-3.05,1-4.93,1h-11.32v-28.3h10.79c1.93,0,3.58.33,4.97.98,1.38.65,2.43,1.53,3.14,2.63.71,1.1,1.06,2.33,1.06,3.69,0,1.63-.44,2.99-1.3,4.07-.87,1.09-2.04,1.89-3.5,2.4,1.52.27,2.81,1.07,3.87,2.4ZM397.65,68.62h5.74c1.52,0,2.71-.35,3.56-1.04s1.28-1.69,1.28-2.99-.43-2.27-1.28-2.99c-.85-.72-2.04-1.08-3.56-1.08h-5.74v8.1ZM407.63,80.1c.9-.76,1.34-1.82,1.34-3.18s-.48-2.48-1.43-3.3c-.95-.81-2.21-1.22-3.79-1.22h-6.11v8.84h6.27c1.57,0,2.81-.38,3.71-1.14Z"/>
    <path class="cls-1" d="M437.33,58.46c2.27,1.15,4.02,2.81,5.25,4.97,1.23,2.16,1.85,4.68,1.85,7.55s-.62,5.37-1.85,7.49c-1.24,2.12-2.99,3.74-5.25,4.87-2.27,1.13-4.91,1.69-7.92,1.69h-9.24v-28.3h9.24c3.01,0,5.65.58,7.92,1.73ZM437.02,78.56c1.76-1.79,2.65-4.32,2.65-7.57s-.88-5.85-2.65-7.69-4.3-2.77-7.61-2.77h-4.6v20.72h4.6c3.31,0,5.85-.9,7.61-2.69Z"/>
    <path class="cls-1" d="M455.18,60.48v8.31h9.77v3.79h-9.77v8.67h10.99v3.79h-15.63v-28.34h15.63v3.79h-10.99Z"/>
    <path class="cls-1" d="M497.77,56.73l-10.63,28.3h-5.38l-10.67-28.3h4.97l8.39,23.53,8.43-23.53h4.89Z"/>
    <path class="cls-1" d="M507.79,60.48v8.31h9.77v3.79h-9.77v8.67h10.99v3.79h-15.63v-28.34h15.63v3.79h-10.99Z"/>
    <path class="cls-1" d="M530.63,81.28h9.57v3.75h-14.21v-28.3h4.64v24.55Z"/>
    <path class="cls-1" d="M551.21,83.46c-2.21-1.23-3.96-2.96-5.25-5.17-1.29-2.21-1.93-4.7-1.93-7.47s.65-5.25,1.93-7.45,3.04-3.91,5.25-5.15c2.21-1.23,4.63-1.85,7.27-1.85s5.1.62,7.31,1.85c2.21,1.24,3.96,2.95,5.23,5.15s1.91,4.68,1.91,7.45-.64,5.26-1.91,7.47c-1.28,2.21-3.02,3.94-5.23,5.17-2.21,1.24-4.65,1.85-7.31,1.85s-5.06-.62-7.27-1.85ZM563.48,80c1.47-.86,2.61-2.08,3.44-3.67.83-1.59,1.24-3.43,1.24-5.52s-.41-3.92-1.24-5.5c-.83-1.57-1.97-2.78-3.44-3.62-1.47-.84-3.14-1.26-5.01-1.26s-3.54.42-5.01,1.26c-1.47.84-2.61,2.05-3.44,3.62-.83,1.57-1.24,3.41-1.24,5.5s.41,3.93,1.24,5.52c.83,1.59,1.97,2.81,3.44,3.67,1.47.85,3.14,1.28,5.01,1.28s3.54-.43,5.01-1.28Z"/>
    <path class="cls-1" d="M597.77,69.23c-.68,1.28-1.76,2.31-3.26,3.11-1.49.8-3.41,1.2-5.74,1.2h-5.13v11.48h-4.64v-28.3h9.77c2.17,0,4.01.37,5.52,1.12,1.51.75,2.63,1.76,3.38,3.03.75,1.28,1.12,2.7,1.12,4.27,0,1.44-.34,2.8-1.02,4.07ZM592.72,68.56c.87-.8,1.3-1.93,1.3-3.4,0-3.09-1.75-4.64-5.25-4.64h-5.13v9.24h5.13c1.76,0,3.08-.4,3.95-1.2Z"/>
    <path class="cls-1" d="M634.53,56.73v28.3h-4.64v-19.38l-8.63,19.38h-3.22l-8.67-19.38v19.38h-4.64v-28.3h5.01l9.93,22.19,9.89-22.19h4.97Z"/>
    <path class="cls-1" d="M646.79,60.48v8.31h9.77v3.79h-9.77v8.67h10.99v3.79h-15.63v-28.34h15.63v3.79h-10.99Z"/>
    <path class="cls-1" d="M688.23,85.03h-4.64l-13.97-21.13v21.13h-4.64v-28.34h4.64l13.97,21.09v-21.09h4.64v28.34Z"/>
    <path class="cls-1" d="M714.13,56.73v3.79h-7.53v24.51h-4.64v-24.51h-7.57v-3.79h19.75Z"/>
  </g>
  <g>
    <path class="cls-1" d="M342.88,15.91c2.27,1.15,4.02,2.81,5.26,4.97,1.24,2.16,1.85,4.68,1.85,7.56s-.62,5.38-1.85,7.5c-1.24,2.12-2.99,3.74-5.26,4.87-2.27,1.13-4.91,1.69-7.92,1.69h-9.25V14.18h9.25c3.01,0,5.66.58,7.92,1.73ZM342.57,36.02c1.77-1.79,2.65-4.32,2.65-7.58s-.88-5.85-2.65-7.7-4.3-2.77-7.62-2.77h-4.6v20.74h4.6c3.31,0,5.85-.9,7.62-2.69Z"/>
    <path class="cls-1" d="M360.74,17.93v8.31h9.78v3.79h-9.78v8.68h11v3.79h-15.64V14.14h15.64v3.79h-11Z"/>
    <path class="cls-1" d="M383.15,41.79c-1.52-.66-2.72-1.61-3.59-2.83s-1.3-2.65-1.3-4.28h4.97c.11,1.22.59,2.23,1.45,3.01.86.79,2.06,1.18,3.61,1.18s2.85-.39,3.75-1.16c.9-.77,1.34-1.77,1.34-2.99,0-.95-.28-1.72-.84-2.32-.56-.6-1.25-1.06-2.08-1.39-.83-.33-1.98-.68-3.44-1.06-1.85-.49-3.35-.98-4.5-1.49-1.16-.5-2.14-1.28-2.95-2.34-.81-1.06-1.22-2.47-1.22-4.24,0-1.63.41-3.06,1.22-4.28.82-1.22,1.96-2.16,3.42-2.81,1.47-.65,3.16-.98,5.09-.98,2.74,0,4.99.69,6.74,2.06s2.72,3.25,2.91,5.64h-5.13c-.08-1.03-.57-1.92-1.47-2.65-.9-.73-2.08-1.1-3.55-1.1-1.33,0-2.42.34-3.26,1.02-.84.68-1.26,1.66-1.26,2.93,0,.87.26,1.58.79,2.14.53.56,1.2,1,2.02,1.32.82.33,1.93.68,3.34,1.06,1.87.52,3.4,1.03,4.58,1.55,1.18.52,2.19,1.31,3.01,2.38.83,1.07,1.24,2.51,1.24,4.3,0,1.44-.39,2.8-1.16,4.07-.77,1.28-1.9,2.3-3.38,3.08-1.48.77-3.23,1.16-5.24,1.16-1.9,0-3.61-.33-5.13-1Z"/>
    <path class="cls-1" d="M409.71,14.18v28.31h-4.64V14.18h4.64Z"/>
    <path class="cls-1" d="M437.83,22.33c-.73-1.41-1.75-2.48-3.06-3.2-1.3-.72-2.81-1.08-4.52-1.08-1.87,0-3.55.42-5.01,1.26-1.47.84-2.61,2.04-3.44,3.58-.83,1.55-1.24,3.34-1.24,5.38s.41,3.84,1.24,5.4c.83,1.56,1.98,2.76,3.44,3.61,1.47.84,3.14,1.26,5.01,1.26,2.53,0,4.58-.71,6.15-2.12s2.54-3.33,2.89-5.74h-10.63v-3.71h15.6v3.63c-.3,2.2-1.08,4.22-2.34,6.07-1.26,1.85-2.91,3.32-4.93,4.42s-4.27,1.65-6.74,1.65c-2.66,0-5.09-.62-7.29-1.85-2.2-1.24-3.95-2.95-5.24-5.15s-1.94-4.68-1.94-7.46.65-5.26,1.94-7.46,3.04-3.92,5.26-5.15c2.21-1.24,4.64-1.85,7.27-1.85,3.01,0,5.7.74,8.05,2.22,2.35,1.48,4.05,3.58,5.11,6.29h-5.58Z"/>
    <path class="cls-1" d="M473.6,42.5h-4.64l-13.98-21.14v21.14h-4.64V14.14h4.64l13.98,21.1V14.14h4.64v28.36Z"/>
  </g>
</svg>